<?xml version="1.0" encoding="UTF-8" standalone="no"?>
<!DOCTYPE svg PUBLIC "-//W3C//DTD SVG 1.1//EN" "http://www.w3.org/Graphics/SVG/1.1/DTD/svg11.dtd">
<svg width="100%" height="100%" viewBox="0 0 700 842" version="1.1" xmlns="http://www.w3.org/2000/svg" xmlns:xlink="http://www.w3.org/1999/xlink" xml:space="preserve" xmlns:serif="http://www.serif.com/" style="fill-rule:evenodd;clip-rule:evenodd;">
    <g id="Layer-1" serif:id="Layer 1" transform="matrix(1,0,0,1,52.3622,0)">
        <rect id="rect910" x="22.5" y="420" width="517.5" height="45" style="fill:rgb(1,115,178);fill-opacity:0.5;stroke:rgb(1,115,178);stroke-width:1.01px;"/>
        <rect id="rect1032" x="22.5" y="465" width="517.5" height="60" style="fill:rgb(222,143,5);fill-opacity:0.5;stroke:rgb(222,143,5);stroke-width:0.9px;"/>
        <g id="path1748" transform="matrix(1,-0,-0,1,-52.3622,0)">
            <path d="M619.851,421.247L609.874,421.247" style="fill:none;fill-rule:nonzero;stroke:black;stroke-width:2.49px;stroke-miterlimit:10;"/>
            <path d="M619.851,463.753L609.874,463.753" style="fill:none;fill-rule:nonzero;stroke:black;stroke-width:2.49px;stroke-miterlimit:10;"/>
            <path d="M614.862,421.247L614.862,463.753" style="fill:none;fill-rule:nonzero;stroke:black;stroke-width:2.49px;stroke-miterlimit:3.9;"/>
        </g>
        <g id="path1750" transform="matrix(1,-0,-0,1,-52.3622,0)">
            <path d="M619.28,523.895L610.444,523.895" style="fill:none;fill-rule:nonzero;stroke:black;stroke-width:2.21px;stroke-miterlimit:10;"/>
            <path d="M614.862,465L614.862,523.895" style="fill:none;fill-rule:nonzero;stroke:black;stroke-width:2.21px;"/>
        </g>
        <g transform="matrix(0.264583,0,0,0.264583,579.408,448.098)">
            <g id="text1848">
                <g>
                    <text x="0px" y="0px" style="font-family:'Helvetica-Oblique', 'Helvetica';font-style:italic;font-size:75.591px;">d</text>
                    <text x="42.04px" y="0px" style="font-family:'Helvetica';font-size:1.843px;">Ni</text>
                </g>
            </g>
        </g>
        <g transform="matrix(0.264583,0,0,0.264583,579.408,500.598)">
            <g id="text1119">
                <g>
                    <text x="0px" y="0px" style="font-family:'Helvetica-Oblique', 'Helvetica';font-style:italic;font-size:75.591px;">d</text>
                    <text x="42.04px" y="0px" style="font-family:'Helvetica';font-size:1.843px;">Ti</text>
                </g>
            </g>
        </g>
        <g transform="matrix(0.264583,0,0,0.264583,40.9082,448.086)">
            <g id="text1125">
                <g>
                    <text x="0px" y="0px" style="font-family:'Helvetica';font-size:75.591px;">SLD</text>
                    <text x="147.047px" y="25.172px" style="font-family:'Helvetica';font-size:44.069px;">Ni</text>
                    <text x="188.664px" y="0px" style="font-family:'Helvetica';font-size:1.843px;">Ni</text>
                </g>
            </g>
        </g>
        <g transform="matrix(0.264583,0,0,0.264583,40.9082,500.586)">
            <g id="text2103">
                <g>
                    <text x="0px" y="0px" style="font-family:'Helvetica';font-size:75.591px;">SLD</text>
                    <text x="147.047px" y="25.172px" style="font-family:'Helvetica';font-size:44.069px;">T<tspan x="172.353px " y="25.172px ">i</tspan></text>
                    <text x="182.144px" y="0.614px" style="font-family:'Helvetica';font-size:1.074px;">Ti</text>
                </g>
            </g>
        </g>
        <g id="path8148" transform="matrix(1,-0,-0,1,-52.3622,0)">
            <path d="M47.532,474.66L52.362,465L57.192,474.66C54.777,472.245 49.947,472.245 47.532,474.66Z" style="fill-rule:nonzero;"/>
            <path d="M52.362,540L52.362,472.728" style="fill:none;fill-rule:nonzero;stroke:black;stroke-width:3.22px;"/>
        </g>
        <g transform="matrix(0.264583,0,0,0.264583,-22.0918,508.098)">
            <g id="text8316">
                <text x="0px" y="0px" style="font-family:'Helvetica-Oblique', 'Helvetica';font-style:italic;font-size:75.591px;">z</text>
            </g>
        </g>
        <rect id="rect6018" x="22.5" y="525" width="517.5" height="45" style="fill:rgb(1,115,178);fill-opacity:0.5;stroke:rgb(1,115,178);stroke-width:1.01px;"/>
        <rect id="rect6020" x="22.5" y="570" width="517.5" height="60" style="fill:rgb(222,143,5);fill-opacity:0.5;stroke:rgb(222,143,5);stroke-width:0.9px;"/>
        <g id="path6022" transform="matrix(1,-0,-0,1,-52.3622,0)">
            <path d="M619.851,568.753L609.874,568.753" style="fill:none;fill-rule:nonzero;stroke:black;stroke-width:2.49px;stroke-miterlimit:10;"/>
            <path d="M614.862,525L614.862,568.753" style="fill:none;fill-rule:nonzero;stroke:black;stroke-width:2.49px;stroke-miterlimit:3.9;"/>
        </g>
        <g id="path6024" transform="matrix(1,-0,-0,1,-52.3622,0)">
            <path d="M619.28,628.895L610.444,628.895" style="fill:none;fill-rule:nonzero;stroke:black;stroke-width:2.21px;stroke-miterlimit:10;"/>
            <path d="M614.862,570L614.862,628.895" style="fill:none;fill-rule:nonzero;stroke:black;stroke-width:2.21px;"/>
        </g>
        <g transform="matrix(0.264583,0,0,0.264583,579.408,553.098)">
            <g id="text6032">
                <g>
                    <text x="0px" y="0px" style="font-family:'Helvetica-Oblique', 'Helvetica';font-style:italic;font-size:75.591px;">d</text>
                    <text x="42.04px" y="0px" style="font-family:'Helvetica';font-size:1.843px;">Ni</text>
                </g>
            </g>
        </g>
        <g transform="matrix(0.264583,0,0,0.264583,579.408,605.598)">
            <g id="text6040">
                <g>
                    <text x="0px" y="0px" style="font-family:'Helvetica-Oblique', 'Helvetica';font-style:italic;font-size:75.591px;">d</text>
                    <text x="42.04px" y="0px" style="font-family:'Helvetica';font-size:1.843px;">Ti</text>
                </g>
            </g>
        </g>
        <g transform="matrix(0.264583,0,0,0.264583,40.9082,553.086)">
            <g id="text6048">
                <g>
                    <text x="0px" y="0px" style="font-family:'Helvetica';font-size:75.591px;">SLD</text>
                    <text x="147.047px" y="25.172px" style="font-family:'Helvetica';font-size:44.069px;">Ni</text>
                    <text x="188.664px" y="0px" style="font-family:'Helvetica';font-size:1.843px;">Ni</text>
                </g>
            </g>
        </g>
        <g transform="matrix(0.264583,0,0,0.264583,40.9082,605.586)">
            <g id="text6054">
                <g>
                    <text x="0px" y="0px" style="font-family:'Helvetica';font-size:75.591px;">SLD</text>
                    <text x="147.047px" y="25.172px" style="font-family:'Helvetica';font-size:44.069px;">T<tspan x="172.353px " y="25.172px ">i</tspan></text>
                    <text x="182.144px" y="0.614px" style="font-family:'Helvetica';font-size:1.074px;">Ti</text>
                </g>
            </g>
        </g>
        <rect id="rect6064" x="22.5" y="630" width="517.5" height="45" style="fill:rgb(1,115,178);fill-opacity:0.5;stroke:rgb(1,115,178);stroke-width:1.01px;"/>
        <rect id="rect6066" x="22.5" y="675" width="517.5" height="60" style="fill:rgb(222,143,5);fill-opacity:0.5;stroke:rgb(222,143,5);stroke-width:0.9px;"/>
        <g id="path6068" transform="matrix(1,-0,-0,1,-52.3622,0)">
            <path d="M619.851,673.753L609.874,673.753" style="fill:none;fill-rule:nonzero;stroke:black;stroke-width:2.49px;stroke-miterlimit:10;"/>
            <path d="M614.862,630L614.862,673.753" style="fill:none;fill-rule:nonzero;stroke:black;stroke-width:2.49px;stroke-miterlimit:3.9;"/>
        </g>
        <g id="path6070" transform="matrix(1,-0,-0,1,-52.3622,0)">
            <path d="M619.28,733.896L610.444,733.896" style="fill:none;fill-rule:nonzero;stroke:black;stroke-width:2.21px;stroke-miterlimit:10;"/>
            <path d="M614.862,675L614.862,733.896" style="fill:none;fill-rule:nonzero;stroke:black;stroke-width:2.21px;"/>
        </g>
        <g transform="matrix(0.264583,0,0,0.264583,579.408,658.098)">
            <g id="text6078">
                <g>
                    <text x="0px" y="0px" style="font-family:'Helvetica-Oblique', 'Helvetica';font-style:italic;font-size:75.591px;">d</text>
                    <text x="42.04px" y="0px" style="font-family:'Helvetica';font-size:1.843px;">Ni</text>
                </g>
            </g>
        </g>
        <g transform="matrix(0.264583,0,0,0.264583,579.408,710.598)">
            <g id="text6086">
                <g>
                    <text x="0px" y="0px" style="font-family:'Helvetica-Oblique', 'Helvetica';font-style:italic;font-size:75.591px;">d</text>
                    <text x="42.04px" y="0px" style="font-family:'Helvetica';font-size:1.843px;">Ti</text>
                </g>
            </g>
        </g>
        <g transform="matrix(0.264583,0,0,0.264583,40.9082,658.086)">
            <g id="text6094">
                <g>
                    <text x="0px" y="0px" style="font-family:'Helvetica';font-size:75.591px;">SLD</text>
                    <text x="147.047px" y="25.172px" style="font-family:'Helvetica';font-size:44.069px;">Ni</text>
                    <text x="188.664px" y="0.614px" style="font-family:'Helvetica';font-size:1.074px;">Ni</text>
                </g>
            </g>
        </g>
        <g transform="matrix(0.264583,0,0,0.264583,40.9082,710.586)">
            <g id="text6100">
                <g>
                    <text x="0px" y="0px" style="font-family:'Helvetica';font-size:75.591px;">SLD</text>
                    <text x="147.047px" y="25.172px" style="font-family:'Helvetica';font-size:44.069px;">T<tspan x="172.353px " y="25.172px ">i</tspan></text>
                    <text x="182.144px" y="0.614px" style="font-family:'Helvetica';font-size:1.074px;">Ti</text>
                </g>
            </g>
        </g>
        <rect id="rect6110" x="22.5" y="735" width="517.5" height="97.5" style="fill:rgb(2,158,115);fill-opacity:0.5;stroke:rgb(2,158,115);stroke-width:1.15px;"/>
        <g transform="matrix(0.264583,0,0,0.264583,40.9082,789.262)">
            <g id="text6116">
                <g>
                    <text x="0px" y="0px" style="font-family:'Helvetica';font-size:75.591px;">SLD</text>
                    <text x="147.047px" y="25.172px" style="font-family:'Helvetica';font-size:44.069px;">Si</text>
                    <text x="186.232px" y="0.614px" style="font-family:'Helvetica';font-size:1.074px;">Si</text>
                </g>
            </g>
        </g>
    </g>
</svg>
